<svg 
          width="45.833335876464844" 
          height="34" fill="none" 
          xmlns="http://www.w3.org/2000/svg">
          <path d="M 22.916667938232422 0 L 0 18 L 6.875000381469726 18 L 6.875000381469726 34 L 38.95833549499511 34 L 38.95833549499511 18 L 45.833335876464844 18 L 22.916667938232422 0 Z M 22.916667938232422 9.399999618530273 C 27.729167986710856 9.399999618530273 31.625002191861494 12.800000190734863 31.625002191861494 17 C 31.625002191861494 23 22.916667938232422 30 22.916667938232422 30 C 22.916667938232422 30 14.208333684603348 23 14.208333684603348 17 C 14.208333684603348 12.800000190734863 18.104167889753988 9.399999618530273 22.916667938232422 9.399999618530273 Z M 22.916667938232422 14 C 22.004986204533214 14.000000000000004 21.130644144110338 14.316070139408112 20.48598780655411 14.878679275512695 C 19.841331468997883 15.441288411617279 19.47916774749756 16.204350531101227 19.479167747497556 17 C 19.479167747497563 17.795649468898773 19.841331468997883 18.55871158838272 20.48598780655411 19.121320724487305 C 21.130644144110338 19.68392986059189 22.004986204533214 19.999999999999996 22.916667938232422 20 C 23.82834967193163 19.999999999999996 24.702691732354502 19.68392986059189 25.34734806991073 19.121320724487305 C 25.992004407466958 18.55871158838272 26.35416812896728 17.795649468898773 26.354168128967284 17 C 26.35416812896728 16.204350531101227 25.992004407466958 15.441288411617279 25.34734806991073 14.878679275512695 C 24.702691732354502 14.316070139408112 23.82834967193163 14.000000000000004 22.916667938232422 14 Z" fill="rgb(0,0,0)"/>
        </svg>